<svg aria-hidden="true" style="position: absolute; width: 0; height: 0; overflow: hidden;" version="1.1" xmlns="http://www.w3.org/2000/svg" xmlns:xlink="http://www.w3.org/1999/xlink">
<defs>
<symbol id="icon-heart-empty" viewBox="0 0 32 32">
<path d="M29.728 10.656q0-1.472-0.384-2.56t-0.992-1.76-1.472-1.056-1.664-0.576-1.76-0.128-1.984 0.448-1.984 1.152-1.536 1.28-1.088 1.088q-0.32 0.416-0.864 0.416t-0.864-0.416q-0.448-0.48-1.088-1.088t-1.536-1.28-1.984-1.152-1.984-0.448-1.76 0.128-1.664 0.576-1.472 1.056-0.992 1.76-0.384 2.56q0 2.976 3.36 6.336l10.368 9.984 10.368-9.984q3.36-3.36 3.36-6.336zM32 10.656q0 3.936-4.096 8.032l-11.104 10.72q-0.32 0.32-0.8 0.32t-0.8-0.32l-11.136-10.752q-0.16-0.16-0.48-0.48t-0.992-1.184-1.216-1.728-0.96-2.144-0.416-2.464q0-3.936 2.272-6.144t6.272-2.24q1.088 0 2.24 0.384t2.144 1.056 1.728 1.216 1.344 1.216q0.64-0.64 1.344-1.216t1.728-1.216 2.144-1.056 2.24-0.384q4 0 6.272 2.24t2.272 6.144z"></path>
</symbol>
<symbol id="icon-gplus" viewBox="0 0 41 32">
<path d="M25.664 16.288q0 3.744-1.568 6.624t-4.416 4.544-6.592 1.632q-2.656 0-5.088-1.024t-4.192-2.784-2.784-4.192-1.024-5.088 1.024-5.088 2.784-4.192 4.192-2.784 5.088-1.024q5.12 0 8.768 3.424l-3.552 3.424q-2.080-2.016-5.216-2.016-2.208 0-4.064 1.088t-2.944 3.008-1.088 4.16 1.088 4.16 2.944 3.008 4.064 1.088q1.472 0 2.72-0.416t2.048-1.024 1.408-1.376 0.864-1.504 0.384-1.312h-7.424v-4.512h12.352q0.224 1.152 0.224 2.176zM41.152 14.112v3.776h-3.744v3.712h-3.744v-3.712h-3.744v-3.776h3.744v-3.712h3.744v3.712h3.744z"></path>
</symbol>
<symbol id="icon-linkedin" viewBox="0 0 27 32">
<path d="M6.24 11.168v17.696h-5.888v-17.696h5.888zM6.624 5.696q0 1.312-0.928 2.176t-2.4 0.864h-0.032q-1.472 0-2.368-0.864t-0.896-2.176 0.928-2.176 2.4-0.864 2.368 0.864 0.928 2.176zM27.424 18.72v10.144h-5.856v-9.472q0-1.888-0.736-2.944t-2.272-1.056q-1.12 0-1.856 0.608t-1.152 1.536q-0.192 0.544-0.192 1.44v9.888h-5.888q0.032-7.136 0.032-11.552t0-5.28l-0.032-0.864h5.888v2.56h-0.032q0.352-0.576 0.736-0.992t0.992-0.928 1.568-0.768 2.048-0.288q3.040 0 4.896 2.016t1.856 5.952z"></path>
</symbol>
<symbol id="icon-angle-circled-left" viewBox="0 0 27 32">
<path d="M16.224 24.896l1.824-1.824q0.352-0.32 0.352-0.8t-0.352-0.8l-5.472-5.472 5.472-5.472q0.352-0.352 0.352-0.8t-0.352-0.832l-1.824-1.824q-0.32-0.32-0.8-0.32t-0.8 0.32l-8.096 8.128q-0.352 0.32-0.352 0.8t0.352 0.8l8.096 8.096q0.352 0.352 0.8 0.352t0.8-0.352zM27.424 16q0 3.744-1.824 6.88t-4.992 4.992-6.88 1.856-6.912-1.856-4.96-4.992-1.856-6.88 1.856-6.88 4.96-4.992 6.912-1.856 6.88 1.856 4.992 4.992 1.824 6.88z"></path>
</symbol>
<symbol id="icon-angle-circled-right" viewBox="0 0 27 32">
<path d="M12.8 24.896l8.128-8.096q0.32-0.352 0.32-0.8t-0.32-0.8l-8.128-8.128q-0.32-0.32-0.8-0.32t-0.8 0.32l-1.824 1.824q-0.352 0.352-0.352 0.832t0.352 0.8l5.472 5.472-5.472 5.472q-0.352 0.352-0.352 0.8t0.352 0.8l1.824 1.824q0.352 0.352 0.8 0.352t0.8-0.352zM27.424 16q0 3.744-1.824 6.88t-4.992 4.992-6.88 1.856-6.912-1.856-4.96-4.992-1.856-6.88 1.856-6.88 4.96-4.992 6.912-1.856 6.88 1.856 4.992 4.992 1.824 6.88z"></path>
</symbol>
<symbol id="icon-facebook" viewBox="0 0 16 32">
<path d="M16 6.592h-4.544q-0.448 0-0.8 0.48t-0.352 1.184v3.264h5.696v4.736h-5.696v14.144h-5.44v-14.144h-4.864v-4.736h4.864v-2.752q0-3.008 1.888-5.088t4.704-2.080h4.544v4.992z"></path>
</symbol>
</defs>
</svg>
